<svg xmlns="http://www.w3.org/2000/svg" viewBox="0 0 490 490" style="enable-background:new 0 0 490 490" xml:space="preserve">
  <path d="M245 0C109.909 0 0 109.909 0 245s109.909 245 245 245 245-109.909 245-245S380.091 0 245 0zm0 474.688C118.35 474.688 15.313 371.65 15.313 245S118.35 15.313 245 15.313 474.688 118.35 474.688 245 371.65 474.688 245 474.688z"/>
  <path d="M245 28.449C125.595 28.449 28.449 125.595 28.449 245S125.595 461.551 245 461.551 461.551 364.405 461.551 245 364.405 28.449 245 28.449zm0 417.789c-110.963 0-201.238-90.275-201.238-201.238S134.037 43.762 245 43.762 446.238 134.037 446.238 245 355.963 446.238 245 446.238z"/>
  <path d="M335.223 299.184v-78.626h-49.347v78.626l-28.718-29.249-35.261 34.356 88.652 90.297 88.652-90.297-35.261-34.356-28.717 29.249zm42.281 5.346-66.955 68.196-66.955-68.196 13.324-12.987 44.27 45.085V235.871h18.722v100.757l44.27-45.085 13.324 12.987zM268.103 185.784l-88.645-90.297-88.652 90.297 35.261 34.371 28.711-29.249v78.619h49.354v-78.619l28.711 29.249 35.26-34.371zm-79.284-32.337v100.765H170.09V153.447l-44.263 45.085-13.324-12.987 66.955-68.196 66.947 68.196-13.324 12.987-44.262-45.085z"/>
</svg>
