<svg xmlns="http://www.w3.org/2000/svg" xml:space="preserve" viewBox="0 0 58 58">
  <path d="m50.466 45.495 6.483-3.241-17.637-6.498 6.498 17.638 3.242-6.484 6.797 6.797c.196.195.452.293.708.293s.512-.098.707-.293a.9989.9989 0 0 0 0-1.414l-6.798-6.798zm-7.778-6.364 9.232 3.402-3.887 1.943-1.943 3.888-3.402-9.233zM21.569 17.569C21.569 14.498 19.071 12 16 12s-5.569 2.498-5.569 5.569c0 3.07 2.498 5.568 5.569 5.568s5.569-2.497 5.569-5.568zm-9.138 0C12.431 15.602 14.032 14 16 14s3.569 1.602 3.569 3.569-1.601 3.569-3.569 3.569-3.569-1.601-3.569-3.569zM51.324 30.737c.408.373 1.04.345 1.413-.062s.346-1.04-.062-1.413l-12-11c-.195-.179-.46-.283-.72-.262a.998.998 0 0 0-.694.325l-9.794 10.727-4.743-4.743c-.372-.371-.971-.391-1.368-.044L6.339 39.249c-.414.365-.454.997-.09 1.412.198.225.474.339.751.339a.998.998 0 0 0 .661-.249l16.313-14.362 7.319 7.318c.391.391 1.023.391 1.414 0s.391-1.023 0-1.414l-1.825-1.825 9.18-10.054 11.262 10.323z"/>
  <path d="M57 4H1c-.553 0-1 .447-1 1v44c0 .553.447 1 1 1h37c.553 0 1-.447 1-1s-.447-1-1-1H2V6h54v31c0 .553.447 1 1 1s1-.447 1-1V5c0-.553-.447-1-1-1z"/>
</svg>
